<?xml version="1.0" encoding="UTF-8"?>
<svg id="Camada_2" data-name="Camada 2" xmlns="http://www.w3.org/2000/svg" viewBox="0 0 109.25 87.61">
  <defs>
    <style>
      .cls-1 {
        fill: #89a09a;
      }
    </style>
  </defs>
  <g id="Camada_1-2" data-name="Camada 1">
    <path class="cls-1" d="M82.63,2.62c-1.37,1.8-2.34,3.45-2.25,3.81,.13,.31,3.13,2.96,6.66,5.87,3.53,2.91,6.58,5.59,6.88,5.96,.31,.45-.87,.57-3.17,.35-11.74-1.3-24.94,.65-33.76,4.98-2.79,1.37-3.08,1.37-5.39,.11-1.3-.77-3.02-1.86-3.8-2.46-2.49-1.89-7.75-3.87-13.31-4.97-9.25-1.8-18.93,.5-27.2,6.49-2.14,1.57-4.73,3.82-5.8,5.04-1.82,2.1-1.85,2.23-.66,3.35,2.38,2.32,3.5,2.38,5.54,.36,4.67-4.51,14.05-7.27,21.88-6.47,4.31,.45,11.26,2.98,13.98,5.05l1.75,1.33-4.1,5.39c-5.15,6.77-7.4,11.53-8.67,17.98-1.75,9.07-.2,16.79,4.6,23.58,5.09,7.07,11.19,10.05,18.65,9.04,5.35-.72,8.56-2.65,11.86-6.97,7.46-9.89,7.8-24.47,.98-38.54-1.15-2.4-2.87-5.31-3.74-6.56-.91-1.2-1.7-2.45-1.78-2.81-.21-.96,8.53-4.71,14.13-6.04,2.68-.65,6.68-1.32,8.92-1.5,4.74-.39,11.26-.08,11.39,.52,.03,.24-1.51,1.32-3.43,2.41-7.28,4.21-12.46,7.39-12.85,7.89-.49,.64,4.96,6.76,5.89,6.59,.73-.1,23.55-17.27,23.46-17.63-.02-.16-3.69-4.04-8.12-8.73-4.47-4.64-9.53-10.02-11.32-11.97-4.83-5.21-4.37-5.15-7.18-1.46Zm-25.59,42.83c6.06,11.53,5.91,26.25-.23,33.07-6.32,6.97-15.61,2.15-17.58-9.1-1.4-8.19,2.13-19.04,8.56-26.14,1.69-1.84,3.39-3.6,3.81-3.86,1.07-.64,3.16,1.68,5.44,6.04Z"/>
  </g>
</svg>